<?xml version="1.0" encoding="UTF-8"?><svg id="Layer_1" xmlns="http://www.w3.org/2000/svg" viewBox="0 0 1892 299"><rect x="2" y="9" width="36" height="288" fill="#231f20"/><rect x="236" y="9" width="36" height="288" fill="#231f20"/><path d="M100,99C44.77,99,0,143.77,0,199s44.77,100,100,100,100-44.77,100-100-44.77-100-100-100ZM100,261.5c-34.52,0-62.5-27.98-62.5-62.5s27.98-62.5,62.5-62.5,62.5,27.98,62.5,62.5-27.98,62.5-62.5,62.5Z" fill="#231f20"/><path d="M399,99c-55.23,0-100,44.77-100,100s44.77,100,100,100,100-44.77,100-100-44.77-100-100-100ZM399,261.5c-34.52,0-62.5-27.98-62.5-62.5s27.98-62.5,62.5-62.5,62.5,27.98,62.5,62.5-27.98,62.5-62.5,62.5Z" fill="#231f20"/><path d="M624,99c-55.23,0-100,44.77-100,100s44.77,100,100,100,100-44.77,100-100-44.77-100-100-100ZM624,261.5c-34.52,0-62.5-27.98-62.5-62.5s27.98-62.5,62.5-62.5,62.5,27.98,62.5,62.5-27.98,62.5-62.5,62.5Z" fill="#231f20"/><path d="M1440.77,97.86c-55.23,0-100,44.77-100,100s44.77,100,100,100,100-44.77,100-100-44.77-100-100-100ZM1440.77,260.36c-34.52,0-62.5-27.98-62.5-62.5s27.98-62.5,62.5-62.5,62.5,27.98,62.5,62.5-27.98,62.5-62.5,62.5Z" fill="#231f20"/><path d="M1657,97c-55.23,0-100,44.77-100,100s44.77,100,100,100,100-44.77,100-100-44.77-100-100-100ZM1657,259.5c-34.52,0-62.5-27.98-62.5-62.5s27.98-62.5,62.5-62.5,62.5,27.98,62.5,62.5-27.98,62.5-62.5,62.5Z" fill="#231f20"/><polygon points="1154 297 1118 297 1118 99 1154 81 1154 297" fill="#231f20"/><polygon points="1820 252 1784 225 1784 45 1820 45 1820 252" fill="#231f20"/><rect x="758" y="90" width="36" height="207" fill="#231f20"/><rect x="1010" y="171" width="36" height="126" fill="#231f20"/><rect x="884" y="153" width="36" height="144" fill="#231f20"/><path d="M794,171c0-18,17.5-45,45-45s45,27,45,45h36c0-45-36-81-81-81s-81,36-81,81h36Z" fill="#231f20"/><rect x="1226" y="90" width="36" height="207" fill="#231f20"/><path d="M1155.81,108c-2.18-36,29.85-70.01,60.82-70.5l-.26-37.5c-51.77.64-98.74,45-98.36,108h37.81Z" fill="#231f20"/><path d="M1226,180.7c0,.17,0,.34,0,.5l37.51-.08c0-.17-1.51-.33-1.51-.5-.07-31.11,33.25-56.96,63-61.81v-37.81c-50.52,5.13-99.11,47.85-99,99.7Z" fill="#231f20"/><rect x="1073" y="99" width="126" height="36" fill="#231f20"/><path d="M1892,243v36s-9,18-45,18c-45,0-63-27-63-45v-45h36v36s0,18,27,18c18,0,45-18,45-18Z" fill="#231f20"/><rect x="1757" y="99" width="54" height="36" fill="#231f20"/><path d="M1843.01,93.82c-13.74,7.26-21.96,20.85-23.01,35.29,12.52,7.26,28.38,8.11,42.12.85,13.74-7.26,21.96-20.85,23.01-35.29-12.52-7.26-28.38-8.11-42.12-.85Z" fill="#231f20"/><path d="M920,171c0-18,17.5-45,45-45s45,27,45,45h36c0-45-36-81-81-81s-81,36-81,81h36Z" fill="#231f20"/></svg>